<svg xmlns="http://www.w3.org/2000/svg" fill="none" viewBox="0 0 16 16" class="design-iconfont delete"> <g clip-path="url(#36fi5z1at__clip0_2858_166351)"> <path d="M11.334 4.00096H14.6673V5.33429H13.334V14.001C13.334 14.1778 13.2637 14.3473 13.1387 14.4724C13.0137 14.5974 12.8441 14.6676 12.6673 14.6676H3.33398C3.15717 14.6676 2.9876 14.5974 2.86258 14.4724C2.73756 14.3473 2.66732 14.1778 2.66732 14.001V5.33429H1.33398V4.00096H4.66732V2.00096C4.66732 1.82415 4.73756 1.65458 4.86258 1.52955C4.9876 1.40453 5.15717 1.33429 5.33398 1.33429H10.6673C10.8441 1.33429 11.0137 1.40453 11.1387 1.52955C11.2637 1.65458 11.334 1.82415 11.334 2.00096V4.00096ZM12.0007 5.33429H4.00065V13.3343H12.0007V5.33429ZM6.00065 7.33429H7.33398V11.3343H6.00065V7.33429ZM8.66732 7.33429H10.0007V11.3343H8.66732V7.33429ZM6.00065 2.66762V4.00096H10.0007V2.66762H6.00065Z" fill="#D82F3A"/> </g> <defs> <clipPath id="36fi5z1at__clip0_2858_166351"> <path fill="#fff" transform="translate(0 .00097656)" d="M0 0H16V16H0z"/> </clipPath> </defs> </svg>