<svg width="18" height="18" viewBox="0 0 18 18" fill="none" xmlns="http://www.w3.org/2000/svg">
<path d="M13.1667 3.99996H17.3334V5.66663H15.6667V16.5C15.6667 16.721 15.579 16.9329 15.4227 17.0892C15.2664 17.2455 15.0544 17.3333 14.8334 17.3333H3.16675C2.94573 17.3333 2.73377 17.2455 2.57749 17.0892C2.42121 16.9329 2.33341 16.721 2.33341 16.5V5.66663H0.666748V3.99996H4.83342V1.49996C4.83342 1.27895 4.92121 1.06698 5.07749 0.910704C5.23377 0.754423 5.44573 0.666626 5.66675 0.666626H12.3334C12.5544 0.666626 12.7664 0.754423 12.9227 0.910704C13.079 1.06698 13.1667 1.27895 13.1667 1.49996V3.99996ZM14.0001 5.66663H4.00008V15.6666H14.0001V5.66663ZM6.50008 8.16663H8.16675V13.1666H6.50008V8.16663ZM9.83342 8.16663H11.5001V13.1666H9.83342V8.16663ZM6.50008 2.33329V3.99996H11.5001V2.33329H6.50008Z" fill="#D82F3A"/>
</svg>
