<svg xmlns="http://www.w3.org/2000/svg" fill="none" viewBox="0 0 16 16" class="design-iconfont">
  <g clip-path="url(#b6jpitugb__clip0_6045_228154)">
    <path d="M5.99998 0.666687V2.00002H9.99998V0.666687H11.3333V2.00002H14C14.1768 2.00002 14.3464 2.07026 14.4714 2.19528C14.5964 2.32031 14.6666 2.48988 14.6666 2.66669V13.3334C14.6666 13.5102 14.5964 13.6797 14.4714 13.8048C14.3464 13.9298 14.1768 14 14 14H1.99998C1.82317 14 1.6536 13.9298 1.52858 13.8048C1.40355 13.6797 1.33331 13.5102 1.33331 13.3334V2.66669C1.33331 2.48988 1.40355 2.32031 1.52858 2.19528C1.6536 2.07026 1.82317 2.00002 1.99998 2.00002H4.66665V0.666687H5.99998ZM13.3333 6.66669H2.66665V12.6667H13.3333V6.66669ZM10.024 7.42402L10.9666 8.36669L7.66665 11.6667L5.30931 9.30935L6.25331 8.36669L7.66731 9.78135L10.0246 7.42402H10.024ZM4.66665 3.33335H2.66665V5.33335H13.3333V3.33335H11.3333V4.00002H9.99998V3.33335H5.99998V4.00002H4.66665V3.33335Z" fill="#454852"/>
  </g>
  <defs>
    <clipPath id="b6jpitugb__clip0_6045_228154">
      <path fill="#fff" d="M0 0H16V16H0z"/>
    </clipPath>
  </defs>
</svg>
