<svg xmlns="http://www.w3.org/2000/svg" fill="none" viewBox="0 0 16 16" class="design-iconfont">
  <g clip-path="url(#e5odl9fee__clip0_6045_228191)">
    <path d="M4.66665 4.66665V1.99998C4.66665 1.82317 4.73688 1.6536 4.86191 1.52858C4.98693 1.40355 5.1565 1.33331 5.33331 1.33331H14C14.1768 1.33331 14.3464 1.40355 14.4714 1.52858C14.5964 1.6536 14.6666 1.82317 14.6666 1.99998V10.6666C14.6666 10.8435 14.5964 11.013 14.4714 11.1381C14.3464 11.2631 14.1768 11.3333 14 11.3333H11.3333V13.9953C11.3333 14.366 11.034 14.6666 10.662 14.6666H2.00465C1.91646 14.6667 1.82912 14.6494 1.74763 14.6157C1.66615 14.582 1.5921 14.5326 1.52975 14.4702C1.46739 14.4079 1.41794 14.3338 1.38424 14.2523C1.35053 14.1708 1.33323 14.0835 1.33331 13.9953L1.33531 5.33798C1.33531 4.96731 1.63465 4.66665 2.00665 4.66665H4.66665ZM5.99998 4.66665H10.662C11.0326 4.66665 11.3333 4.96598 11.3333 5.33798V9.99998H13.3333V2.66665H5.99998V4.66665ZM9.99998 5.99998H2.66865L2.66665 13.3333H9.99998V5.99998ZM5.66865 12L3.31131 9.64265L4.25398 8.69998L5.66865 10.1146L8.49665 7.28598L9.43931 8.22865L5.66865 12Z" fill="#454852"/>
  </g>
  <defs>
    <clipPath id="e5odl9fee__clip0_6045_228191">
      <path fill="#fff" d="M0 0H16V16H0z"/>
    </clipPath>
  </defs>
</svg>
