<svg xmlns="http://www.w3.org/2000/svg" fill="none" viewBox="0 0 16 16" class="design-iconfont">
  <g clip-path="url(#7gd4i683q__clip0_6045_37008)">
    <path d="M14 13.3333C14 13.5101 13.9298 13.6797 13.8047 13.8047C13.6797 13.9298 13.5101 14 13.3333 14H2.66667C2.48986 14 2.32029 13.9298 2.19526 13.8047C2.07024 13.6797 2 13.5101 2 13.3333V2.66667C2 2.48986 2.07024 2.32029 2.19526 2.19526C2.32029 2.07024 2.48986 2 2.66667 2H13.3333C13.5101 2 13.6797 2.07024 13.8047 2.19526C13.9298 2.32029 14 2.48986 14 2.66667V13.3333ZM7.33333 3.33333H3.33333V12.6667H7.33333V3.33333ZM12.6667 8.66667H8.66667V12.6667H12.6667V8.66667ZM12.6667 3.33333H8.66667V7.33333H12.6667V3.33333Z" fill="#454852"/>
  </g>
  <defs>
    <clipPath id="7gd4i683q__clip0_6045_37008">
      <path fill="#fff" d="M0 0H16V16H0z"/>
    </clipPath>
  </defs>
</svg>
