<svg xmlns="http://www.w3.org/2000/svg" fill="none" viewBox="0 0 16 16" class="design-iconfont">
  <g clip-path="url(#hrf1l3lsv__clip0_6045_228176)" fill="#454852">
    <path d="M2.66667 2H13.3333C13.5101 2 13.6797 2.07024 13.8047 2.19526C13.9298 2.32029 14 2.48986 14 2.66667V13.3333C14 13.5101 13.9298 13.6797 13.8047 13.8047C13.6797 13.9298 13.5101 14 13.3333 14H2.66667C2.48986 14 2.32029 13.9298 2.19526 13.8047C2.07024 13.6797 2 13.5101 2 13.3333V2.66667C2 2.48986 2.07024 2.32029 2.19526 2.19526C2.32029 2.07024 2.48986 2 2.66667 2V2ZM3.33333 3.33333V12.6667H12.6667V3.33333H3.33333Z"/>
    <path d="M8.16198 10.438L5.33331 7.60935L6.27665 6.66669L8.16198 8.55269L10.0473 6.66669L10.9906 7.60935L8.16198 10.438Z"/>
  </g>
  <defs>
    <clipPath id="hrf1l3lsv__clip0_6045_228176">
      <path fill="#fff" d="M0 0H16V16H0z"/>
    </clipPath>
  </defs>
</svg>
