<svg xmlns="http://www.w3.org/2000/svg" fill="none" viewBox="0 0 18 18" class="design-iconfont">
  <g clip-path="url(#is3u17w8c__clip0_6045_228145)">
    <path d="M6.33331 14.3333V15.6213C6.33342 15.6847 6.31544 15.7468 6.28149 15.8004C6.24754 15.8539 6.19903 15.8967 6.14165 15.9236C6.08426 15.9506 6.02038 15.9606 5.95751 15.9525C5.89463 15.9444 5.83536 15.9186 5.78665 15.878L3.03998 13.5893C2.9873 13.5454 2.94945 13.4863 2.93161 13.4201C2.91376 13.3538 2.91678 13.2837 2.94026 13.2193C2.96373 13.1548 3.00652 13.0992 3.06279 13.0599C3.11905 13.0207 3.18605 12.9998 3.25465 13H13C13.3536 13 13.6927 12.8595 13.9428 12.6095C14.1928 12.3594 14.3333 12.0203 14.3333 11.6667V6.33334H15.6666V11.6667C15.6666 12.3739 15.3857 13.0522 14.8856 13.5523C14.3855 14.0524 13.7072 14.3333 13 14.3333H6.33331ZM11.6666 3.66668V2.37868C11.6665 2.31528 11.6845 2.25317 11.7185 2.19963C11.7524 2.14609 11.8009 2.10334 11.8583 2.0764C11.9157 2.04946 11.9796 2.03944 12.0425 2.04752C12.1053 2.0556 12.1646 2.08144 12.2133 2.12201L14.96 4.41068C15.0126 4.45457 15.0504 4.51362 15.0683 4.57979C15.0862 4.64596 15.0832 4.71603 15.0598 4.78045C15.0364 4.84487 14.9937 4.90051 14.9376 4.9398C14.8814 4.97909 14.8145 5.00012 14.746 5.00001H4.99998C4.64636 5.00001 4.30722 5.14048 4.05717 5.39053C3.80712 5.64058 3.66665 5.97972 3.66665 6.33334V11.6667H2.33331V6.33334C2.33331 5.6261 2.61426 4.94782 3.11436 4.44772C3.61446 3.94763 4.29274 3.66668 4.99998 3.66668H11.6666ZM8.33331 6.33334H9.66665V11.6667H8.33331V7.66668H6.99998V7.00001L8.33331 6.33334Z" fill="#454852"/>
  </g>
  <defs>
    <clipPath id="is3u17w8c__clip0_6045_228145">
      <path fill="#fff" transform="translate(1 1)" d="M0 0H16V16H0z"/>
    </clipPath>
  </defs>
</svg>
