<svg xmlns="http://www.w3.org/2000/svg" fill="none" viewBox="0 0 16 16" class="design-iconfont">
  <g clip-path="url(#e2o3odxbx__clip0_6045_228161)">
    <path d="M7.99998 14.6666C4.31798 14.6666 1.33331 11.682 1.33331 7.99998C1.33331 4.31798 4.31798 1.33331 7.99998 1.33331C11.682 1.33331 14.6666 4.31798 14.6666 7.99998C14.6666 11.682 11.682 14.6666 7.99998 14.6666ZM7.99998 13.3333C9.41447 13.3333 10.771 12.7714 11.7712 11.7712C12.7714 10.771 13.3333 9.41447 13.3333 7.99998C13.3333 6.58549 12.7714 5.22894 11.7712 4.22874C10.771 3.22855 9.41447 2.66665 7.99998 2.66665C6.58549 2.66665 5.22894 3.22855 4.22874 4.22874C3.22855 5.22894 2.66665 6.58549 2.66665 7.99998C2.66665 9.41447 3.22855 10.771 4.22874 11.7712C5.22894 12.7714 6.58549 13.3333 7.99998 13.3333V13.3333ZM8.66665 7.99998H11.3333V9.33331H7.33331V4.66665H8.66665V7.99998Z" fill="#454852"/>
  </g>
  <defs>
    <clipPath id="e2o3odxbx__clip0_6045_228161">
      <path fill="#fff" d="M0 0H16V16H0z"/>
    </clipPath>
  </defs>
</svg>
