<svg width="16" height="16" viewBox="0 0 16 16" fill="none" xmlns="http://www.w3.org/2000/svg">
<path d="M11.6667 5.33331C12.219 5.33331 12.6667 4.88561 12.6667 4.33331C12.6667 3.78101 12.219 3.33331 11.6667 3.33331C11.1144 3.33331 10.6667 3.78101 10.6667 4.33331C10.6667 4.88561 11.1144 5.33331 11.6667 5.33331Z" fill="#454852"/>
<path d="M4.33331 12.6667C4.88561 12.6667 5.33331 12.219 5.33331 11.6667C5.33331 11.1144 4.88561 10.6667 4.33331 10.6667C3.78101 10.6667 3.33331 11.1144 3.33331 11.6667C3.33331 12.219 3.78101 12.6667 4.33331 12.6667Z" fill="#454852"/>
<path fill-rule="evenodd" clip-rule="evenodd" d="M1.33331 4.33331C1.33331 2.67646 2.67646 1.33331 4.33331 1.33331H11.6666C13.3235 1.33331 14.6666 2.67646 14.6666 4.33331C14.6666 5.99017 13.3235 7.33331 11.6666 7.33331H4.33331C2.67646 7.33331 1.33331 5.99017 1.33331 4.33331ZM4.33331 2.66665C3.41284 2.66665 2.66665 3.41284 2.66665 4.33331C2.66665 5.25379 3.41284 5.99998 4.33331 5.99998H11.6666C12.5871 5.99998 13.3333 5.25379 13.3333 4.33331C13.3333 3.41284 12.5871 2.66665 11.6666 2.66665H4.33331Z" fill="#454852"/>
<path fill-rule="evenodd" clip-rule="evenodd" d="M1.33331 11.6667C1.33331 10.0098 2.67646 8.66669 4.33331 8.66669H11.6666C13.3235 8.66669 14.6666 10.0098 14.6666 11.6667C14.6666 13.3235 13.3235 14.6667 11.6666 14.6667H4.33331C2.67646 14.6667 1.33331 13.3235 1.33331 11.6667ZM4.33331 10C3.41284 10 2.66665 10.7462 2.66665 11.6667C2.66665 12.5872 3.41284 13.3334 4.33331 13.3334H11.6666C12.5871 13.3334 13.3333 12.5872 13.3333 11.6667C13.3333 10.7462 12.5871 10 11.6666 10H4.33331Z" fill="#454852"/>
</svg>
